<?xml version="1.0" encoding="UTF-8"?> <svg xmlns="http://www.w3.org/2000/svg" width="84" height="48" viewBox="0 0 84 48" fill="none"><path d="M6.04098 11.7034C2.70527 11.7034 0 14.4086 0 17.7444V41.2278C0 44.5635 2.70527 47.2688 6.04098 47.2688C9.3767 47.2688 12.082 44.5635 12.082 41.2278V17.7444C12.082 14.4086 9.3767 11.7034 6.04098 11.7034Z" fill="white"></path><path d="M34.7532 0C31.4342 0 28.7456 2.69025 28.7456 6.00762V11.7451H20.7282C17.4242 11.7451 14.7456 14.4236 14.7456 17.7277C14.7456 21.0317 17.4242 23.7086 20.7282 23.7086H28.7456V29.0874C28.5521 32.5949 25.6551 35.3803 22.1009 35.3803H20.3229V35.4053C17.134 35.5354 14.5872 38.1539 14.5872 41.3746C14.5872 44.5952 17.2657 47.3572 20.5698 47.3572C20.5764 47.3572 20.5814 47.3572 20.5881 47.3572L20.5698 47.3788H24.8228C33.6258 47.3788 40.7609 40.2437 40.7609 31.4408V29.341C40.7609 29.3243 40.7625 29.3093 40.7625 29.2926V6.00762C40.7625 2.69025 38.0723 0 34.7549 0" fill="white"></path><path d="M63.7921 35.4053V35.3803H62.0142C58.46 35.3803 55.5629 32.5949 55.3695 29.0874V23.7086H63.3868C66.6909 23.7086 69.3695 21.03 69.3695 17.726C69.3695 14.422 66.6909 11.7434 63.3868 11.7434H55.3695V6.00762C55.3695 2.69025 52.6792 0 49.3602 0C46.0411 0 43.3525 2.69025 43.3525 6.00762V29.2909C43.3525 29.3076 43.3542 29.3243 43.3542 29.3393V31.4408C43.3542 40.2437 50.4893 47.3788 59.2923 47.3788H63.5453L63.527 47.3572C63.527 47.3572 63.5386 47.3572 63.5453 47.3572C66.8493 47.3572 69.5279 44.6786 69.5279 41.3746C69.5279 38.0705 66.9811 35.5354 63.7921 35.4053Z" fill="white"></path><path d="M77.959 11.7034C74.6232 11.7034 71.918 14.4086 71.918 17.7444V41.2278C71.918 44.5635 74.6232 47.2688 77.959 47.2688C81.2947 47.2688 83.9999 44.5635 83.9999 41.2278V17.7444C83.9999 14.4086 81.2947 11.7034 77.959 11.7034" fill="white"></path></svg> 